<svg width="24" height="24" viewBox="0 0 24 24" fill="none" xmlns="http://www.w3.org/2000/svg">
<rect width="24" height="24" rx="8" fill="#7870FF"/>
<path d="M18.7627 6.72016C16.7288 5.21618 14.7966 5.10875 14.4915 5.10875L14.2881 5.32361C16.6271 5.96817 17.9492 7.14987 18.0508 7.25729C14.3898 5.32361 10.322 5.21618 6.66102 6.72016C6.15254 6.93501 5.84746 7.14987 5.74576 7.14987C5.94915 7.04244 7.16949 5.86074 9.71186 5.21618L9.50847 5.00133C9.50847 5.00133 7.47458 4.8939 5.23729 6.61273C5.23729 6.61273 3 10.5875 3 15.6366C3 15.6366 4.32203 17.8926 7.67797 18C7.67797 18 8.18644 17.3554 8.69492 16.7109C6.9661 16.1737 6.15254 14.992 6.05085 14.8846L6.66102 15.2069C8.49153 15.9589 10.4237 17.0332 13.9831 16.3886C14.6949 16.2812 15.5085 16.0663 16.2203 15.744C16.7288 15.4218 17.339 15.2069 17.9492 14.7772C17.8475 14.8846 17.0339 16.0663 15.2034 16.6034C15.6102 17.248 16.2203 17.8926 16.2203 17.8926C19.678 17.7851 21 15.5292 21 15.744C21 10.8024 18.7627 6.72016 18.7627 6.72016ZM9.20339 14.0252C8.38983 14.0252 7.67797 13.2732 7.67797 12.3064C7.67797 11.3395 8.38983 10.5875 9.20339 10.5875C10.0169 10.5875 10.7288 11.4469 10.7288 12.3064C10.7288 13.2732 10.0169 14.0252 9.20339 14.0252ZM14.7966 14.0252C13.9831 14.0252 13.2712 13.2732 13.2712 12.3064C13.2712 11.3395 13.9831 10.5875 14.7966 10.5875C15.7119 10.5875 16.4237 11.4469 16.4237 12.3064C16.4237 13.2732 15.7119 14.0252 14.7966 14.0252Z" fill="white"/>
</svg>
