<svg width="16" height="19" viewBox="0 0 16 19" fill="none" xmlns="http://www.w3.org/2000/svg">
<path d="M15.4832 13.8596C14.9347 13.4692 14.5867 12.8402 14.5867 12.1136V7.88413C14.5867 4.79338 12.3718 2.21233 9.40804 1.57249V1.42066C9.40804 0.628995 8.77521 0 7.99473 0C7.21424 0 6.58141 0.63984 6.58141 1.42066V1.57249C3.61767 2.21233 1.40277 4.78253 1.40277 7.88413V12.1027C1.40277 12.786 1.0969 13.3824 0.611734 13.7728C0.558998 13.8162 0.527357 13.8379 0.379697 13.9463C0.14766 14.1199 0 14.391 0 14.7163C0 15.2369 0.421885 15.6707 0.938695 15.6707H15.0613C15.5781 15.6707 16 15.2477 16 14.7163C16 14.3801 15.8312 14.0873 15.5676 13.9138C15.5254 13.8921 15.5148 13.8704 15.4832 13.8596ZM7.99473 19C9.29202 19 10.3467 17.9372 10.3467 16.625H5.64272C5.64272 17.9264 6.69743 19 7.99473 19Z" fill="white"/>
</svg>
