<svg width="24" height="24" viewBox="0 0 24 24" fill="none" xmlns="http://www.w3.org/2000/svg">
<rect width="24" height="24" rx="8" fill="white"/>
<path d="M4 3L6.79044 5.78909C7.92085 4.88432 9.28103 4.31246 10.7184 4.1377C12.1557 3.96293 13.6133 4.19216 14.9276 4.79967C16.2418 5.40718 17.3608 6.36893 18.159 7.577C18.9571 8.78507 19.4028 10.1917 19.446 11.6389V11.8645V21L16.6556 18.2116C15.5251 19.1154 14.1652 19.6864 12.7284 19.8606C11.2917 20.0349 9.83473 19.8054 8.52103 19.198C7.20733 18.5906 6.08879 17.6293 5.29085 16.4218C4.4929 15.2143 4.04708 13.8084 4.00339 12.3618L4 12.1355V3ZM5.90839 7.6067V12.1355C5.90923 13.2008 6.19949 14.2459 6.74817 15.1591C7.29684 16.0722 8.08331 16.8192 9.02353 17.3201C9.96376 17.821 11.0224 18.057 12.0864 18.0029C13.1503 17.9489 14.1796 17.6068 15.0642 17.0132L15.2153 16.9082L6.28099 7.9793L5.90839 7.6067ZM8.38178 6.98683L8.23071 7.09183L17.165 16.0214L17.5376 16.394V11.8645C17.5368 10.7992 17.2465 9.7541 16.6978 8.84093C16.1491 7.92777 15.3627 7.18083 14.4225 6.67993C13.4822 6.17903 12.4236 5.943 11.3596 5.99706C10.2957 6.05111 9.2664 6.39322 8.38178 6.98683Z" fill="black"/>
</svg>
