<svg width="12" height="18" viewBox="0 0 12 18" fill="none" xmlns="http://www.w3.org/2000/svg">
<path d="M1 6C1 5 1.2 4.2 1.4 3.7C1.6 3.2 2 2.7 2.5 2.3C3 1.8 3.5 1.5 4.2 1.3C4.8 1.1 5.4 1 6.1 1C7.5 1 8.6 1.4 9.6 2.2C10.5 3 11 4 11 5.3C11 5.9 10.8 6.4 10.6 6.9C10.4 7.4 9.9 8 9.1 8.7C8.3 9.4 8 9.9 7.7 10.2C7.4 10.5 7.3 10.9 7.1 11.3C6.9 11.7 7 12 7 13H5C5 12 5.1 11.5 5.2 11C5.3 10.5 5.5 10.1 5.8 9.7C6.1 9.3 6.4 8.8 7.1 8.1C7.8 7.4 8.3 6.9 8.5 6.6C8.7 6.3 8.9 5.8 8.9 5.1C8.9 4.4 8.6 3.9 8.1 3.4C7.6 2.9 6.9 2.6 6 2.6C4 2.6 3 4 3 6H1ZM7 17H5V15H7V17Z" fill="white" stroke="white" stroke-width="0.5"/>
</svg>
