<svg width="24" height="24" viewBox="0 0 24 24" fill="none" xmlns="http://www.w3.org/2000/svg">
<rect width="24" height="24" rx="8" fill="#54AEFF"/>
<path d="M22 6.66667C21.6323 7.33333 21.0194 8 20.1613 8.44445V8.88889C20.1613 14.4444 15.1355 19 9.00645 19C6.92258 19 4.83871 18.4444 3 17.4444C3.36774 17.4444 3.6129 17.5556 3.98065 17.4444C5.81935 17.4444 7.53548 16.8889 8.88387 15.8889C7.16774 15.8889 5.69677 14.8889 5.20645 13.4444C5.45161 13.4444 5.69677 13.5556 5.94194 13.5556C6.30968 13.5556 6.67742 13.5556 6.92258 13.4444C5.08387 13.1111 3.73548 11.6667 3.73548 10C4.22581 10.2222 4.83871 10.4444 5.45161 10.4444C4.47097 9.77778 3.85806 8.66667 3.85806 7.44444C3.85806 6.77778 4.10323 6.22222 4.34839 5.66667C6.30968 7.88889 9.25161 9.22222 12.4387 9.33333C12.3161 9.11111 12.3161 8.77778 12.3161 8.55556C12.3161 6.55556 14.0323 5 16.2387 5C17.3419 5 18.3226 5.44444 19.0581 6.11111C19.9161 6 20.7742 5.66667 21.5097 5.22222C21.2645 6 20.6516 6.77778 19.7935 7.22222C20.529 7.11111 21.3871 6.88889 22 6.66667Z" fill="white"/>
</svg>
