<svg width="24" height="24" viewBox="0 0 24 24" fill="none" xmlns="http://www.w3.org/2000/svg">
<rect width="24" height="24" rx="8" fill="#216DFF"/>
<path d="M7.82421 18.1965C7.54878 18.1956 7.36404 18.0185 7.18434 17.8404C5.61069 16.2668 4.03201 14.6965 2.46507 13.1145C1.83528 12.4771 1.84871 12.289 2.48355 11.6256C3.5584 10.5046 3.57687 10.4836 4.71722 11.5626C5.61741 12.4141 6.47561 13.3135 7.32457 14.2179C7.6739 14.589 7.91154 14.5722 8.27682 14.2229C9.29286 13.2589 10.2813 12.2662 11.2411 11.2461C11.8986 10.5407 12.1035 10.5491 12.803 11.2385C13.7653 12.1874 14.6428 13.2236 15.6563 14.1263C16.1148 14.5344 16.3684 14.6041 16.8126 14.1288C17.801 13.0741 18.8565 12.0833 19.8667 11.047C20.2488 10.6557 20.5679 10.6389 20.9727 11.0168C22.3632 12.3134 22.333 12.4158 20.9374 13.7258C19.6005 14.9812 18.3435 16.3264 17.0553 17.6355C16.3214 18.3821 16.2156 18.3426 15.4422 17.68C14.3573 16.7496 13.4731 15.6244 12.4696 14.6167C12.1371 14.2825 11.9162 14.2556 11.5803 14.61C10.5684 15.6739 9.61535 16.8 8.50187 17.7607C8.29446 17.9395 8.11812 18.1621 7.82421 18.1973" fill="white"/>
<path d="M11.9418 5C14.3342 5.17298 16.515 5.89179 18.2373 7.88026C18.6697 8.37906 18.6823 8.79725 18.2675 9.27421C18.2028 9.34811 18.1407 9.42452 18.0743 9.49758C17.0474 10.643 17.0474 10.643 15.954 9.58659C13.6666 7.37559 10.3027 7.39826 8.03205 9.64033C7.87586 9.79484 7.72051 9.95019 7.5702 10.1106C7.18225 10.5262 6.86483 10.5178 6.45084 10.0711C5.0485 8.5596 5.02247 8.5638 6.51634 7.17237C8.07908 5.71713 9.95167 5.17214 11.9418 5Z" fill="white"/>
</svg>
