<svg width="16" height="16" viewBox="0 0 16 16" fill="none" xmlns="http://www.w3.org/2000/svg">
<path d="M14.5 14.5C14.6952 14.3048 14.6952 13.9882 14.5 13.793L10.7255 10.0185C11.521 9.065 12 7.8385 12 6.5C12 3.4625 9.5375 1 6.5 1C3.4625 1 1 3.4625 1 6.5C1 9.5375 3.4625 12 6.5 12C7.8385 12 9.065 11.521 10.0185 10.7255L13.793 14.5C13.9882 14.6952 14.3048 14.6952 14.5 14.5V14.5ZM2 6.5C2 4.0185 4.0185 2 6.5 2C8.9815 2 11 4.0185 11 6.5C11 8.9815 8.9815 11 6.5 11C4.0185 11 2 8.9815 2 6.5Z" fill="#6F7782"/>
</svg>
